<?xml version="1.0" encoding="UTF-8"?>
<svg xmlns="http://www.w3.org/2000/svg" version="1.1" viewBox="0 0 228.66 39.08">
  <!-- Generator: Adobe Illustrator 29.6.1, SVG Export Plug-In . SVG Version: 2.1.1 Build 9)  -->
  <defs>
    <style>
      .st0, .st1 {
        fill: #fed136;
      }

      .st1 {
        font-family: Pacifico-Regular, Pacifico;
        font-size: 35.32px;
      }

      .st2 {
        display: none;
      }
    </style>
  </defs>
  <g id="Capa_1" class="st2">
    <path class="st0" d="M23.08,2.27c.07.4.13.68.16.83.04.2.06.41.05.62,0,.76-.17,1.5-.51,2.18-.29.62-.78,1.13-1.4,1.43-.48-.64-1.07-1.19-1.73-1.64-.7-.47-1.46-.85-2.25-1.14-.82-.29-1.67-.51-2.53-.65-.84-.14-1.7-.21-2.55-.21-.78,0-1.55.06-2.32.19-.65.11-1.29.29-1.91.53-.49.18-.94.47-1.31.83-.31.3-.48.71-.48,1.14.14.62.49,1.18,1,1.57.64.59,1.34,1.11,2.09,1.56.82.51,1.74,1,2.74,1.5s2,1,3,1.42c1.2.57,2.24,1.09,3.11,1.58.79.42,1.52.96,2.16,1.59.56.57,1,1.25,1.28,2,.26.85.37,1.73.32,2.62,0,1.15-.19,2.3-.6,3.38-.39,1.03-.98,1.96-1.75,2.74-.79.79-1.74,1.42-2.78,1.83-1.16.45-2.4.67-3.65.65-1.43-.02-2.84-.22-4.22-.6-1.49-.38-2.93-.94-4.3-1.65-1.23-.61-2.36-1.42-3.33-2.4-.83-.74-1.32-1.78-1.37-2.89.03-.62.17-1.23.41-1.8.34-.85.84-1.64,1.47-2.31.15.92.54,1.79,1.12,2.52.85,1.1,1.91,2.02,3.13,2.69,1.25.73,2.6,1.29,4,1.65,1.26.33,2.56.5,3.87.51,1.1.04,2.19-.13,3.23-.5.72-.26,1.38-.66,1.94-1.18.43-.39.77-.87,1-1.4.16-.36.27-.74.32-1.13-.04-.52-.27-1.01-.65-1.37-.5-.5-1.06-.93-1.67-1.27-.69-.41-1.5-.83-2.42-1.26s-1.88-.85-2.87-1.27c-1.48-.66-2.77-1.28-3.84-1.86-.94-.49-1.83-1.09-2.65-1.77-.64-.52-1.16-1.17-1.53-1.9-.33-.71-.49-1.48-.47-2.26,0-1.34.43-2.65,1.2-3.75.87-1.23,2.09-2.17,3.51-2.69.77-.34,1.59-.58,2.42-.71C12.36.08,13.2,0,14.05,0c1.55,0,3.08.22,4.57.64,1.52.44,3.01.98,4.46,1.63Z"/>
    <path class="st0" d="M25.92,12.57c-.17-.27-.28-.58-.32-.9-.09-.39-.14-.79-.15-1.19.59.1,1.18.15,1.77.15h1.56c.36-.7.74-1.4,1.15-2.09s.82-1.32,1.21-1.89c.34-.5.7-.99,1.09-1.45.23-.29.5-.55.8-.77.3,0,.61.05.9.12.37.09.74.19,1.12.32s.72.27,1,.41c.24.1.45.24.63.42-.71.9-1.31,1.72-1.82,2.48s-1.06,1.64-1.65,2.62h1.44c.49,0,.98-.03,1.47-.1.12.13.22.28.28.44.07.17.11.36.11.55-1.35.48-2.78.71-4.22.67-.59,1.14-1.11,2.27-1.57,3.39s-.85,2.21-1.17,3.25c-.3.96-.55,1.95-.74,2.94-.17.82-.26,1.65-.27,2.49,0,1.04.39,1.62,1.17,1.74.69-.09,1.36-.27,2-.53.61-.25,1.19-.58,1.7-1,.12.16.2.35.24.54-.2.28-.45.52-.72.73-.36.3-.73.57-1.12.83-.37.26-.77.49-1.17.69-.27.15-.55.25-.85.31-.61,0-1.21-.12-1.77-.35-.57-.23-1.11-.53-1.61-.89-.46-.33-.86-.73-1.18-1.19-.29-.37-.45-.82-.46-1.29.01-.72.09-1.44.23-2.14.15-.87.37-1.8.65-2.82s.62-2.08,1-3.19.79-2.21,1.24-3.3h-1.97Z"/>
    <path class="st0" d="M48.5,11.83c.28,0,.56.05.83.12.3.08.59.19.87.32.23.11.45.25.65.41.18.14.27.27.27.39-.47,1-.91,2-1.31,3s-.74,2-1,2.89c-.26.85-.48,1.71-.65,2.58-.14.69-.22,1.39-.23,2.09-.01.55.06,1.11.21,1.64.11.39.36.73.71.94-.34.21-.71.37-1.1.46-.39.11-.79.17-1.2.18-1.28,0-1.91-.87-1.91-2.62.13-1.91.59-3.78,1.36-5.53-.46,1.04-1.01,2.05-1.63,3-.56.88-1.19,1.72-1.87,2.52-.58.71-1.25,1.34-1.98,1.88-.53.4-1.14.68-1.79.83-.87,0-1.67-.45-2.12-1.2-.57-.89-.86-1.94-.82-3,.02-1.44.31-2.86.85-4.19.56-1.45,1.29-2.82,2.18-4.09.81-1.17,1.78-2.23,2.88-3.14.82-.76,1.88-1.21,3-1.27.29.1.56.25.8.43.3.22.59.47.85.74.26.26.49.55.69.86.16.23.27.49.32.76-1.06.17-2.06.61-2.91,1.27-1.03.81-1.95,1.75-2.73,2.81-.81,1.08-1.48,2.26-2,3.51-.49,1.1-.75,2.29-.78,3.5-.05.36.16.72.5.85.95-.33,1.78-.95,2.37-1.76,1.22-1.49,2.31-3.08,3.26-4.76l.79-1.41c.3-.52.6-1.07.91-1.63l.9-1.72c.33-.56.57-1.12.83-1.66Z"/>
    <path class="st0" d="M52.08,25.42c.11-.68.32-1.58.62-2.7s.64-2.32,1-3.58.83-2.53,1.27-3.81.89-2.42,1.31-3.43c.24-.59.51-1.16.82-1.72.21-.37.47-.71.78-1,.34.05.67.14,1,.25.34.11.68.25,1,.42.31.15.6.32.89.51.22.15.42.32.6.52-.66.79-1.23,1.65-1.68,2.58-.55,1.18-1.01,2.39-1.38,3.64,1.27-1.13,2.39-2.22,3.38-3.26,1.01-1.08,1.93-2.24,2.74-3.47.22-.13.48-.19.74-.17.34,0,.68.05,1,.16.26.07.49.22.64.44-.42,1.07-.63,2.21-.64,3.36-.05.81.11,1.61.46,2.34-.11.3-.27.57-.48.81-.3.4-.64.78-1,1.13-.65-.33-1.23-.79-1.71-1.34-.48-.56-.86-1.2-1.1-1.89-1,.69-1.94,1.45-2.83,2.28-.77.73-1.45,1.57-2,2.48-.59.99-1.07,2.04-1.42,3.13-.38,1.18-.76,2.59-1.11,4.22-.26-.05-.52-.12-.76-.23-.31-.14-.61-.3-.89-.48-.28-.18-.54-.38-.79-.6-.2-.16-.35-.36-.46-.59Z"/>
    <path class="st0" d="M69.28,12.57c-.17-.27-.28-.58-.32-.9-.08-.39-.13-.79-.14-1.19.59.1,1.18.15,1.77.15h1.56c.35-.7.74-1.4,1.15-2.09s.81-1.32,1.2-1.89c.34-.5.71-.99,1.1-1.45.23-.29.5-.55.8-.77.3,0,.6.05.9.12.37.09.74.19,1.12.32s.72.27,1,.41c.24.09.46.24.64.42-.71.9-1.32,1.72-1.82,2.48s-1.06,1.64-1.65,2.62h1.41c.49,0,.98-.03,1.47-.1.13.12.23.27.29.44.07.18.1.36.1.55-1.35.48-2.78.71-4.21.67-.59,1.14-1.12,2.27-1.58,3.39s-.81,2.21-1.07,3.25c-.3.97-.55,1.95-.75,2.94-.16.82-.25,1.65-.26,2.49,0,1.04.39,1.62,1.17,1.74.69-.09,1.36-.27,2-.53.62-.24,1.19-.58,1.7-1,.12.16.2.34.25.54-.21.28-.45.52-.73.73-.35.3-.72.57-1.11.83-.37.26-.77.49-1.17.69-.27.14-.55.25-.85.31-.61,0-1.21-.12-1.77-.35-.57-.23-1.11-.53-1.61-.89-.46-.33-.86-.73-1.18-1.19-.29-.37-.45-.82-.47-1.29.02-.72.09-1.43.23-2.14.16-.87.38-1.8.66-2.82s.61-2.08,1-3.19.79-2.21,1.24-3.3h-2.07Z"/>
    <path class="st0" d="M112.61,6.62c.02,1.4-.4,2.77-1.2,3.92-.86,1.19-1.99,2.17-3.29,2.85.87.58,1.6,1.35,2.14,2.24.53.88.81,1.9.8,2.93-.02,1.34-.42,2.65-1.15,3.77-.81,1.28-1.85,2.39-3.07,3.29-1.33.98-2.79,1.77-4.35,2.32-1.6.58-3.29.88-5,.88-1.67.05-3.33-.29-4.84-1-1.34-.67-2.47-1.71-3.23-3,.23-.71.54-1.59.93-2.64.39-1,.82-2.16,1.3-3.32s1-2.33,1.43-3.49.94-2.2,1.36-3.12c.9-2,1.7-3.67,2.41-5,.59-1.1,1.26-2.15,2-3.15-1.21.37-2.39.82-3.54,1.36-.85.37-1.64.87-2.34,1.47-.25-.17-.47-.39-.65-.63-.23-.3-.45-.61-.64-.94-.2-.33-.37-.69-.5-1.05-.12-.31-.19-.63-.23-.95.75-.49,1.55-.9,2.39-1.22,1.05-.41,2.12-.74,3.21-1,1.17-.29,2.36-.52,3.55-.68,1.16-.16,2.32-.24,3.49-.24,2.34-.13,4.67.46,6.66,1.7,1.54,1.06,2.43,2.83,2.36,4.7ZM99.13,15.1c-.48-.25-.9-.59-1.24-1-.55,1.2-1.06,2.38-1.54,3.54s-.92,2.23-1.3,3.22-.68,1.86-.92,2.59c-.18.54-.31,1.09-.39,1.65.37.2.77.35,1.19.42.57.11,1.14.16,1.72.15,1.56,0,3.11-.22,4.6-.68,1.38-.42,2.68-1.06,3.86-1.89,1.04-.7,1.94-1.6,2.65-2.64.64-.91.99-2,1-3.11.08-1.43-.71-2.76-2-3.37-1.98.79-4.1,1.17-6.23,1.14h-.76c-.21.01-.43,0-.64-.02ZM106,2.8c-.52,0-1.05.03-1.57.09-.56.06-1.14.15-1.75.27.09.09.17.19.23.3,0,.1.11.21.16.33-.29.4-.55.81-.78,1.24-.31.55-.65,1.18-1,1.9s-.77,1.51-1.19,2.39-.83,1.77-1.25,2.69c.48-.11.98-.19,1.47-.23.57-.06,1.14-.09,1.71-.09h.91c.3,0,.58.06.86.11,1.05-.17,2.08-.45,3.07-.83.83-.33,1.62-.76,2.35-1.28.59-.43,1.1-.97,1.48-1.59.35-.56.53-1.21.53-1.87.05-1.04-.46-2.02-1.34-2.57-1.19-.65-2.54-.94-3.89-.86Z"/>
    <path class="st0" d="M117.53,27.37c-1.28-.11-2.45-.75-3.22-1.77-.84-1.16-1.27-2.57-1.2-4,0-.99.15-1.98.42-2.94.29-1.04.7-2.05,1.21-3,.52-.96,1.14-1.87,1.84-2.71.68-.82,1.45-1.56,2.3-2.19,1.03-.87,2.31-1.37,3.65-1.45.95.62,1.72,1.49,2.23,2.51h.63c1.26,0,1.88,1.11,1.88,3.33.01,1.44-.24,2.87-.73,4.23-.46,1.31-1.14,2.54-2,3.63-.86,1.09-1.9,2.02-3.08,2.75-1.21.76-2.54,1.3-3.93,1.61ZM119.34,16.22c-.42.56-.79,1.15-1.13,1.77-.35.62-.66,1.27-.92,1.93-.25.61-.45,1.23-.6,1.87-.14.53-.21,1.07-.22,1.62,0,.55.1,1.1.29,1.62.18.52.4.82.63.89,1.06-.23,2.05-.69,2.92-1.33.9-.67,1.69-1.49,2.31-2.42.66-1.02,1.18-2.13,1.52-3.3.37-1.28.56-2.6.55-3.93,0-.49-.03-.97-.11-1.45-.06-.32-.18-.64-.35-.92-1.02.31-1.97.83-2.78,1.53-.78.63-1.49,1.34-2.11,2.12Z"/>
    <path class="st0" d="M133.15,27.37c-1.28-.1-2.45-.75-3.22-1.77-.85-1.15-1.28-2.57-1.21-4,0-1,.15-1.98.43-2.94.28-1.04.68-2.05,1.2-3,.52-.96,1.14-1.87,1.84-2.71.68-.82,1.45-1.55,2.3-2.19,1.03-.86,2.31-1.37,3.65-1.45.96.62,1.73,1.49,2.23,2.51h.64c1.25,0,1.87,1.11,1.87,3.33,0,1.44-.24,2.87-.72,4.23-.47,1.31-1.14,2.54-2,3.63-.86,1.09-1.9,2.02-3.08,2.75-1.21.76-2.54,1.3-3.93,1.61ZM135,16.22c-.42.56-.79,1.15-1.13,1.77-.35.62-.65,1.27-.92,1.93-.25.61-.45,1.23-.6,1.87-.13.53-.21,1.07-.22,1.62,0,.55.1,1.1.29,1.62.19.52.4.82.64.89,1.05-.24,2.05-.69,2.92-1.33.9-.67,1.68-1.49,2.3-2.42.67-1.02,1.18-2.13,1.52-3.3.38-1.28.56-2.6.55-3.93,0-.49-.03-.97-.11-1.45-.06-.32-.18-.64-.35-.92-1.04.31-2,.83-2.83,1.53-.76.63-1.45,1.34-2.06,2.12Z"/>
    <path class="st0" d="M146.32,12.57c-.17-.27-.28-.58-.32-.9-.09-.39-.14-.79-.14-1.19.58.1,1.18.15,1.77.15h1.55c.36-.7.74-1.4,1.15-2.09s.82-1.32,1.21-1.89c.34-.5.71-.99,1.1-1.45.23-.29.49-.55.79-.77.31,0,.61.05.91.12.36.09.73.19,1.11.32s.72.27,1,.41c.24.09.45.24.63.42-.7.9-1.31,1.72-1.82,2.48s-1.06,1.64-1.64,2.62h1.43c.49,0,.98-.03,1.47-.1.13.12.22.27.28.44.07.17.11.36.11.55-1.35.48-2.78.71-4.22.67-.59,1.14-1.11,2.27-1.57,3.39s-.85,2.21-1.17,3.25c-.3.96-.55,1.95-.74,2.94-.17.82-.26,1.65-.27,2.49,0,1.04.39,1.62,1.17,1.74.69-.09,1.36-.27,2-.53.61-.25,1.19-.58,1.7-1,.12.16.2.35.25.54-.21.27-.46.52-.73.73-.36.3-.73.58-1.12.83-.37.25-.76.48-1.16.69-.27.14-.55.25-.85.31-.61,0-1.21-.12-1.77-.35-.57-.23-1.11-.53-1.61-.89-.46-.33-.86-.73-1.19-1.19-.29-.37-.45-.82-.46-1.29.02-.72.09-1.43.23-2.14.15-.87.37-1.8.65-2.82s.62-2.08,1-3.19.79-2.21,1.23-3.3h-1.96Z"/>
    <path class="st0" d="M168.9,11.99c-.03.47-.1.94-.23,1.4-.12.45-.28.89-.47,1.31-.16.36-.37.69-.61,1-.13.21-.35.36-.6.39-.26,0-.41-.2-.46-.53.01-.12.04-.23.09-.34.06-.15.12-.32.19-.51s.14-.38.2-.57c.05-.16.08-.32.09-.49,0-.3-.07-.59-.23-.84-.14-.21-.37-.33-.62-.33-.95,0-1.67.59-2.16,1.76-.57,1.66-.83,3.42-.74,5.18-.02.14-.02.28,0,.42h2.48c.02.09.02.19,0,.28.02.17-.03.33-.14.46l-1.29.3c-.25.06-.49.14-.73.23-.12.04-.23.12-.3.23-.04.11-.05.22-.05.33v1.27c.08,1.73-.49,3.43-1.61,4.76-1.17,1.25-2.77,2-4.48,2.09-.35-.03-.69-.13-1-.28-.36-.17-.69-.39-1-.64-.31-.25-.59-.54-.83-.87-.23-.3-.4-.64-.5-1,0-.89.19-1.78.57-2.59.37-.81.9-1.55,1.54-2.17.67-.65,1.45-1.17,2.3-1.54.91-.4,1.9-.6,2.89-.59,0-.58-.06-1.17-.18-1.74-.12-.57-.24-1.12-.37-1.65s-.26-1.06-.37-1.57c-.12-.49-.18-1-.18-1.51,0-.65.14-1.3.39-1.9.25-.63.58-1.21,1-1.74.42-.53.92-.99,1.48-1.37.54-.37,1.14-.63,1.77-.78.37.14.71.35,1,.62.45.36.88.74,1.29,1.15.41.4.78.83,1.13,1.29.32.31.57.67.74,1.08ZM157.22,28.1c.59-.24,1.13-.58,1.61-1,1.01-.9,1.78-2.05,2.23-3.33.22-.6.34-1.24.34-1.88-.56.11-1.09.33-1.56.66-1.14.75-2.11,1.73-2.84,2.89-.29.42-.46.91-.5,1.42.01.51.29.98.72,1.24Z"/>
    <path class="st0" d="M171,12.57c-.17-.27-.28-.58-.32-.9-.09-.39-.14-.79-.14-1.19.58.1,1.18.15,1.77.15h1.56c.35-.7.73-1.4,1.15-2.09s.81-1.32,1.2-1.89c.34-.5.71-.99,1.1-1.45.23-.29.49-.55.79-.77.31,0,.61.05.91.12.36.09.73.19,1.11.32s.72.27,1,.41c.24.09.45.24.63.42-.7.9-1.31,1.72-1.82,2.48s-1.05,1.64-1.64,2.62h1.43c.49,0,.98-.03,1.47-.1.13.12.22.27.28.44.07.17.11.36.11.55-1.35.48-2.78.71-4.21.67-.6,1.14-1.12,2.27-1.58,3.39s-.85,2.21-1.17,3.25c-.3.96-.55,1.95-.74,2.94-.17.82-.26,1.65-.27,2.49,0,1.04.39,1.62,1.17,1.74.69-.09,1.36-.27,2-.53.61-.25,1.19-.58,1.7-1,.12.16.2.35.25.54-.21.27-.46.52-.73.73-.36.3-.73.58-1.12.83-.37.25-.76.48-1.16.69-.27.14-.55.25-.85.31-.61,0-1.21-.12-1.77-.35-.57-.23-1.11-.53-1.61-.89-.46-.33-.86-.73-1.19-1.19-.29-.37-.45-.82-.46-1.29.02-.72.09-1.43.23-2.14.15-.87.37-1.8.65-2.82s.62-2.08,1-3.19.79-2.21,1.23-3.3h-1.96Z"/>
    <path class="st0" d="M180.55,25.42c.12-.68.32-1.58.62-2.7s.64-2.32,1-3.58.83-2.53,1.28-3.81.88-2.42,1.31-3.43c.24-.59.51-1.16.81-1.72.22-.36.48-.7.78-1,.34.06.67.14,1,.25.34.12.68.26,1,.42.31.15.6.32.89.51.22.15.42.32.6.52-.66.79-1.23,1.65-1.68,2.58-.54,1.18-1,2.4-1.38,3.64,1.28-1.13,2.4-2.22,3.38-3.26,1.01-1.08,1.93-2.24,2.75-3.47.22-.13.48-.19.74-.17.32,0,.65.05.95.16.26.07.49.22.64.44-.41,1.07-.63,2.21-.64,3.36-.05.81.11,1.61.47,2.34-.12.29-.28.57-.48.81-.3.4-.64.78-1,1.13-1.31-.69-2.3-1.85-2.79-3.25-.99.7-1.92,1.48-2.8,2.32-.77.74-1.44,1.57-2,2.48-.59.98-1.07,2.02-1.43,3.11-.39,1.18-.76,2.59-1.12,4.22-.26-.05-.52-.12-.76-.23-.61-.27-1.18-.63-1.69-1.06-.2-.17-.35-.37-.45-.61Z"/>
    <path class="st0" d="M207.88,11.83c.28,0,.56.05.83.12.3.08.59.19.87.32.23.11.45.25.65.41.18.14.27.27.27.39-.47,1-.91,2-1.31,3s-.74,2-1,2.89c-.26.85-.48,1.71-.65,2.58-.14.69-.22,1.39-.23,2.09-.01.55.06,1.11.21,1.64.11.39.36.73.71.94-.34.21-.71.37-1.1.46-.39.11-.79.17-1.2.18-1.28,0-1.91-.87-1.91-2.62.13-1.9.58-3.77,1.34-5.52-.46,1.04-1.01,2.05-1.63,3-.56.88-1.19,1.72-1.87,2.52-.58.7-1.23,1.33-1.96,1.87-.53.4-1.14.68-1.79.83-.87,0-1.67-.45-2.12-1.2-.57-.89-.86-1.94-.82-3,.02-1.44.31-2.86.85-4.19.56-1.45,1.29-2.82,2.18-4.09.81-1.18,1.78-2.23,2.88-3.14.82-.76,1.88-1.21,3-1.27.29.1.56.25.8.43.3.22.59.47.85.74.26.26.49.55.69.86.16.23.27.49.32.76-1.06.17-2.06.61-2.91,1.27-1.03.81-1.95,1.75-2.73,2.81-.81,1.08-1.48,2.26-2,3.51-.49,1.1-.75,2.29-.78,3.5-.05.36.16.72.5.85.95-.33,1.78-.95,2.37-1.76,1.22-1.49,2.31-3.08,3.26-4.76l.79-1.41c.3-.52.6-1.07.91-1.63l.9-1.72c.29-.56.57-1.12.83-1.66Z"/>
    <path class="st0" d="M209.72,37.85c-.33-.09-.52-.45-.57-1.06-.1-.36-.16-.73-.19-1.1,0-.42-.05-.91-.05-1.45.02-.67.1-1.34.24-2,.17-.86.4-1.83.7-2.92s.65-2.26,1.08-3.52.89-2.54,1.41-3.84c.64-1.63,1.19-3,1.67-4.23s.86-2.23,1.18-3.1.58-1.59.78-2.16.36-1,.48-1.45c.12-.34.26-.68.42-1,.2-.42.42-.83.66-1.22.24-.41.5-.8.76-1.17.21-.3.44-.58.71-.83.8.11,1.58.33,2.33.64.52.16.99.47,1.35.88-.43.43-.81.92-1.13,1.44-.45.68-.86,1.39-1.24,2.12-.41.77-.77,1.55-1.1,2.36-.29.69-.54,1.4-.74,2.12.27-.46.58-.9.92-1.31.37-.47,1-1.12,1.73-1.95.74-.78,1.56-1.48,2.46-2.07.59-.42,1.28-.66,2-.72.8-.04,1.59.23,2.21.74.57.47.89,1.17.87,1.91,0,1.72-.29,3.43-.85,5.05-.55,1.63-1.37,3.16-2.44,4.51-.41.52-.87.99-1.37,1.42-.53.46-1.1.88-1.7,1.25-.54.35-1.12.64-1.73.87-.48.19-1,.3-1.52.32-.39,0-.78-.08-1.12-.27-.29-.13-.52-.36-.65-.65,1.01-.62,1.91-1.38,2.69-2.27.92-1.03,1.73-2.15,2.42-3.34.77-1.31,1.42-2.67,1.95-4.09.55-1.45.97-2.94,1.26-4.46-.85.44-1.67.95-2.43,1.54-.81.63-1.54,1.37-2.17,2.18-.85,1-1.52,1.87-2,2.51s-.9,1.18-1.22,1.63c-.29.4-.55.82-.78,1.25-.2.39-.42.87-.65,1.44-.33.75-.72,1.75-1.15,3s-.89,2.62-1.35,4.16-.92,3.17-1.38,4.9-.9,3.47-1.33,5.19c-.3-.08-.55-.29-.67-.57-.19-.21-.33-.36-.41-.46-.09-.1-.21-.18-.34-.22Z"/>
  </g>
  <g id="Capa_2">
    <text class="st1" transform="translate(0 34.43)"><tspan x="0" y="0">Parallel World</tspan></text>
  </g>
</svg>